<svg xmlns="http://www.w3.org/2000/svg" viewBox="0 0 79.23 68.98"><defs><style>.cls-1{fill:#7474aa;}</style></defs><title>Ресурс 5</title><g id="Слой_2" data-name="Слой 2"><g id="Слой_1-2" data-name="Слой 1"><path class="cls-1" d="M30.36,0c2.77,0,5.54-.06,8.3,0a26.74,26.74,0,0,1,8,1.16,20.89,20.89,0,0,1,10,7.31,23.65,23.65,0,0,1,4.78,11.63,24.19,24.19,0,0,1-3.61,16.13,21.19,21.19,0,0,1-11.62,9.17,22.74,22.74,0,0,1-7,.93c-1.16,0-2.33,0-3.49,0a3.23,3.23,0,0,0-2.57,1.15c-3.11,3.32-6.27,6.6-9.43,9.88a5.66,5.66,0,0,1-1.21,1A2.91,2.91,0,0,1,18,56c-.09-2.32,0-4.65,0-7V47.6c0-1.4-.08-1.45-1.38-1.9s-2.53-.87-3.76-1.39a20.15,20.15,0,0,1-9.44-8.78A26.3,26.3,0,0,1,.13,25.27a20.53,20.53,0,0,1,.73-8.08,23.28,23.28,0,0,1,6.22-11A21.15,21.15,0,0,1,21.79,0C24.64,0,27.5,0,30.36,0Z"/><path class="cls-1" d="M65.72,25.29a12.94,12.94,0,0,1,6,2.37,17.26,17.26,0,0,1,7.52,14.09,17.82,17.82,0,0,1-3.88,12,14.52,14.52,0,0,1-6,4.56c-.66.28-1.31.57-2,.82a1.73,1.73,0,0,0-1.23,1.84c0,1.78,0,3.57,0,5.35a2.55,2.55,0,0,1-4,2.22,9.28,9.28,0,0,1-1.19-1.07c-2.08-2.15-4.18-4.28-6.21-6.47A3.72,3.72,0,0,0,52,59.73a48.79,48.79,0,0,1-6.51-.62c-4.15-.85-7.18-3.41-9.46-6.91a4.05,4.05,0,0,1-.21-.35c-.38-.81-.12-1.31.78-1.35,1.34,0,2.68,0,4-.06a24.22,24.22,0,0,0,20.2-11.23,28,28,0,0,0,4.49-10.92C65.48,27.33,65.58,26.36,65.72,25.29Z"/></g></g></svg>