<svg xmlns="http://www.w3.org/2000/svg" viewBox="0 0 42.96 81.39"><defs><style>.cls-1{fill:#7474aa;}</style></defs><title>Ресурс 3</title><g id="Слой_2" data-name="Слой 2"><g id="Слой_1-2" data-name="Слой 1"><path class="cls-1" d="M34.12,27c0,4.73,0,9.47,0,14.2a12.63,12.63,0,0,1-25,2.88,13.71,13.71,0,0,1-.32-3c0-9.38,0-18.76,0-28.13a12.65,12.65,0,0,1,25.29-.57C34.17,17.22,34.12,22.1,34.12,27Z"/><path class="cls-1" d="M0,38.63c0-1.75-.07-3.5,0-5.24A2.53,2.53,0,0,1,3.63,31a2.53,2.53,0,0,1,1.55,2.54c0,2.53,0,5.06,0,7.58a16.26,16.26,0,0,0,11,15.5c9.3,3.31,19.76-2.8,21.23-12.57a71.26,71.26,0,0,0,.32-8.66c0-.74,0-1.48,0-2.21a2.58,2.58,0,0,1,5.11-.29.61.61,0,0,1,0,.13c0,5.54.64,11.13-1.6,16.47A21.78,21.78,0,0,1,19,62.6,21.45,21.45,0,0,1,.07,42.35c0-1.24,0-2.48,0-3.72Z"/><path class="cls-1" d="M18.88,64.76h5.19V76.22c1.38,0,2.6,0,3.83,0,1.42,0,2.85,0,4.27,0a2.35,2.35,0,0,1,2.47,2,25.83,25.83,0,0,1,0,3.18H8.2c0-1-.07-2,0-2.93a2.49,2.49,0,0,1,2.69-2.23c2.16,0,4.32,0,6.48,0,.45,0,.9,0,1.49-.06Z"/></g></g></svg>