<svg xmlns="http://www.w3.org/2000/svg" viewBox="0 0 163.38 163.44"><defs><style>.cls-1{fill:#7474aa;}</style></defs><title>Ресурс 6</title><g id="Слой_2" data-name="Слой 2"><g id="Слой_1-2" data-name="Слой 1"><path class="cls-1" d="M54.82,16.54A36.22,36.22,0,0,1,59,20.28c.48.57.13,1.83.16,2.78-.88,0-2.08.27-2.58-.18a92.72,92.72,0,0,1-7.51-7.59,3.16,3.16,0,0,1,.09-3,78.54,78.54,0,0,1,7.09-7.16c.59-.52,1.86-.28,2.82-.39-.13,1,.08,2.28-.45,3a39.06,39.06,0,0,1-4.24,4.23h80.88c3.86,0,4,.1,4,4q0,37.83,0,75.67a5.82,5.82,0,0,1-.2,2.34,2.28,2.28,0,0,1-1.6,1.27,2.25,2.25,0,0,1-1.7-1.21,8.87,8.87,0,0,1-.21-2.93q0-35.76,0-71.52V15.82H55.35Z"/><path class="cls-1" d="M26.19,149.62H97.92a47.25,47.25,0,0,1-4.25-4.56c-.46-.63-.15-1.82-.19-2.75.87.07,2-.2,2.55.26a81.79,81.79,0,0,1,7.35,7.31,3.37,3.37,0,0,1,0,3.26,74.75,74.75,0,0,1-7.07,7.17c-.6.55-1.85.38-2.8.54.1-1-.17-2.36.38-3a28.53,28.53,0,0,1,4-3.48l-.46-1h-3c-22.74,0-45.48,0-68.22.06-2.8,0-3.75-.74-3.74-3.65.1-26.59.06-53.19.06-79.78a5.32,5.32,0,0,1,.1-2c.28-.61,1-1.46,1.49-1.42a2.76,2.76,0,0,1,1.91,1.32,6.71,6.71,0,0,1,.14,2.63v79.19Z"/><path class="cls-1" d="M26,59.15c-5.33,0-10.67.05-16,0C1.55,59-2.24,52.88,1.36,45.22,6.64,34,15.67,29,27.85,29.68c11.07.58,18.61,6.3,22.92,16.41,2.93,6.87-.71,12.76-8.16,13-5.53.18-11.07,0-16.6,0Z"/><path class="cls-1" d="M25.65,55.37c5.63,0,11.27,0,16.91,0,4.67,0,6.86-3.17,5-7.48C44.13,39.58,38.16,34.57,29,33.47,18,32.16,8.33,37.62,4.3,47.83c-1.73,4.36.37,7.51,5,7.53C14.77,55.38,20.21,55.37,25.65,55.37Z"/><path class="cls-1" d="M137.45,163.41c-5.44,0-10.89.05-16.32,0-7.86-.09-11.56-5.89-8.47-13.14,4.77-11.17,13.55-16.47,26.71-16.14,10.65.26,19.46,6.86,23.4,17.53A8.42,8.42,0,0,1,155,163.34c-5.83.19-11.67,0-17.5,0Z"/><path class="cls-1" d="M137.26,159.83c5.54,0,11.08,0,16.62,0,4.84,0,7-3.29,5.12-7.75-3.85-9.34-11.6-14.27-22.46-14.28-9.26,0-16.95,5.29-20.65,14.22-1.87,4.51.2,7.76,5,7.81C126.37,159.88,131.82,159.83,137.26,159.83Z"/><path class="cls-1" d="M137.61,132.08A13.81,13.81,0,1,1,151.36,118,13.89,13.89,0,0,1,137.61,132.08Z"/><path class="cls-1" d="M137.52,128.36a10.09,10.09,0,0,0,10.11-9.91,10.17,10.17,0,1,0-10.11,9.91Z"/><path class="cls-1" d="M25.81,0A14,14,0,0,1,39.72,13.67a14,14,0,0,1-14,13.94A14,14,0,0,1,12,13.76,14,14,0,0,1,25.81,0Z"/><path class="cls-1" d="M25.76,23.89a10.12,10.12,0,1,0,.06-20.24,10.12,10.12,0,0,0-.06,20.24Z"/></g></g></svg>