<svg xmlns="http://www.w3.org/2000/svg" viewBox="0 0 56.36 62.36"><defs><style>.cls-1{fill:#7474aa;}</style></defs><title>Ресурс 4</title><g id="Слой_2" data-name="Слой 2"><g id="Слой_1-2" data-name="Слой 1"><path class="cls-1" d="M41.35,48.62c2,1.29,3.83,2.45,5.62,3.69.83.58,1.32.55,1.9-.36Q52.38,46.43,56,41c.56-.83.42-1.29-.39-1.81-4.45-2.88-8.9-5.77-13.31-8.71a4.28,4.28,0,0,1-1.46-1.75C36.92,19.6,33.05,10.46,29.13,1.34a6.9,6.9,0,0,0-1-1.34,8,8,0,0,0-1.22,1.18q-4.2,6.36-8.33,12.76a1.83,1.83,0,0,1-1.81,1,40.19,40.19,0,0,0-4.39,0,2,2,0,0,0-1.34.74c-1.18,1.65-2.23,3.39-3.37,5.07a1.52,1.52,0,0,0-.15,1.67c.63,1.37,1.15,2.78,1.79,4.14a1.59,1.59,0,0,1-.16,1.76C6.29,32.64,3.5,36.93.7,41.22a9.45,9.45,0,0,0-.53.86c-.38.75-.11,1.14.71,1.19h.68c9.62-.09,19.24-.1,28.86-.32a7.65,7.65,0,0,1,5.21,2c-.19.33-.35.65-.55,1q-3.61,5.53-7.24,11a3.35,3.35,0,0,0,.82,4.69,3.17,3.17,0,0,0,4.72-.87c2.44-3.66,4.82-7.36,7.23-11C40.83,49.42,41.06,49.08,41.35,48.62Z"/></g></g></svg>